Normalized EMG Linear Envelopes
nRows=191
nColumns=4

endheader
time	 med_gas_r	  soleus_r	 tib_ant_r	
3.59274	  0.045428	  0.224162	  0.060187	
3.62601	  0.044993	  0.227958	  0.060295	
3.65927	  0.045137	  0.231448	  0.060073	
3.69254	  0.045750	  0.234432	  0.059540	
3.72581	  0.046671	  0.236706	  0.058917	
3.75907	  0.047665	  0.237479	  0.058345	
3.79234	  0.048552	  0.236219	  0.057785	
3.8256	  0.049403	  0.232942	  0.057114	
3.85887	  0.050272	  0.228383	  0.056412	
3.89214	  0.051259	  0.223652	  0.055818	
3.9254	  0.052057	  0.220020	  0.055296	
3.95867	  0.052008	  0.218186	  0.054824	
3.99194	  0.051151	  0.218268	  0.054387	
4.0252	  0.050014	  0.219725	  0.053967	
4.05847	  0.049016	  0.221568	  0.053730	
4.09173	  0.048434	  0.223576	  0.053784	
4.125	  0.048311	  0.225433	  0.054215	
4.15827	  0.048417	  0.226885	  0.054900	
4.19153	  0.048541	  0.227542	  0.055778	
4.2248	  0.048729	  0.227575	  0.056862	
4.25806	  0.048909	  0.227081	  0.058082	
4.29133	  0.048906	  0.226369	  0.059250	
4.3246	  0.048840	  0.226062	  0.060091	
4.35786	  0.048741	  0.226527	  0.060276	
4.39113	  0.048338	  0.227439	  0.059755	
4.4244	  0.047436	  0.227774	  0.058617	
4.45766	  0.046378	  0.227035	  0.057134	
4.49093	  0.045428	  0.225689	  0.055579	
4.52419	  0.044794	  0.224183	  0.054186	
4.55746	  0.044701	  0.222892	  0.053113	
4.59073	  0.045101	  0.221850	  0.052593	
4.62399	  0.045661	  0.220953	  0.052736	
4.65726	  0.046071	  0.220794	  0.053388	
4.69052	  0.046409	  0.221349	  0.054280	
4.72379	  0.046755	  0.222500	  0.055135	
4.75706	  0.047211	  0.224219	  0.055821	
4.79032	  0.047691	  0.226077	  0.056185	
4.82359	  0.047963	  0.228117	  0.056254	
4.85685	  0.047868	  0.230593	  0.056098	
4.89012	  0.047300	  0.234009	  0.055780	
4.92339	  0.046533	  0.237799	  0.055475	
4.95665	  0.045915	  0.240739	  0.055398	
4.98992	  0.045549	  0.242082	  0.055699	
5.02319	  0.045542	  0.241821	  0.056318	
5.05645	  0.045952	  0.239898	  0.057072	
5.08972	  0.046820	  0.236527	  0.057765	
5.12298	  0.048127	  0.231859	  0.058259	
5.15625	  0.049703	  0.226814	  0.058541	
5.18952	  0.051161	  0.222784	  0.058619	
5.22278	  0.052116	  0.220357	  0.058378	
5.25605	  0.052630	  0.219600	  0.057813	
5.28931	  0.052939	  0.219754	  0.056997	
5.32258	  0.053277	  0.219909	  0.055901	
5.35585	  0.053916	  0.219701	  0.054821	
5.38911	  0.054990	  0.219089	  0.054049	
5.42238	  0.056224	  0.218421	  0.053707	
5.45565	  0.057220	  0.218135	  0.053797	
5.48891	  0.057575	  0.218397	  0.054252	
5.52218	  0.057202	  0.219372	  0.054858	
5.55544	  0.056474	  0.220424	  0.055468	
5.58871	  0.055670	  0.221612	  0.056082	
5.62198	  0.054887	  0.222758	  0.056927	
5.65524	  0.053976	  0.224119	  0.058233	
5.68851	  0.052689	  0.226195	  0.059852	
5.72177	  0.051082	  0.228196	  0.061451	
5.75504	  0.049497	  0.229582	  0.062837	
5.78831	  0.048315	  0.230157	  0.063887	
5.82157	  0.047801	  0.229280	  0.064529	
5.85484	  0.048041	  0.226986	  0.064689	
5.8881	  0.048853	  0.224172	  0.064512	
5.92137	  0.049734	  0.221566	  0.063904	
5.95464	  0.050189	  0.219466	  0.062741	
5.9879	  0.049945	  0.218267	  0.060973	
6.02117	  0.049198	  0.218024	  0.058847	
6.05444	  0.048545	  0.218569	  0.056885	
6.0877	  0.048375	  0.219602	  0.055365	
6.12097	  0.048653	  0.221102	  0.054317	
6.15423	  0.049167	  0.223206	  0.053766	
6.1875	  0.049711	  0.225569	  0.053714	
6.22077	  0.050289	  0.227394	  0.054113	
6.25403	  0.050646	  0.228260	  0.054698	
6.2873	  0.050571	  0.228320	  0.055360	
6.32056	  0.050385	  0.228198	  0.055826	
6.35383	  0.050204	  0.228392	  0.055884	
6.3871	  0.050008	  0.229234	  0.055571	
6.42036	  0.049748	  0.230726	  0.055068	
6.45363	  0.049561	  0.232089	  0.054676	
6.4869	  0.049588	  0.232309	  0.054710	
6.52016	  0.049634	  0.231383	  0.055221	
6.55343	  0.049390	  0.229784	  0.055972	
6.58669	  0.048857	  0.228246	  0.056736	
6.61996	  0.048338	  0.227503	  0.057247	
6.65323	  0.047970	  0.227593	  0.057495	
6.68649	  0.047870	  0.228434	  0.057688	
6.71976	  0.048124	  0.230155	  0.057912	
6.75302	  0.048479	  0.232562	  0.058102	
6.78629	  0.048801	  0.234748	  0.058144	
6.81956	  0.049442	  0.235939	  0.058050	
6.85282	  0.050615	  0.235458	  0.057937	
6.88609	  0.052214	  0.233263	  0.057897	
6.91935	  0.053944	  0.229735	  0.057965	
6.95262	  0.055395	  0.224928	  0.058095	
6.98589	  0.056237	  0.219468	  0.058154	
7.01915	  0.056242	  0.214321	  0.058023	
7.05242	  0.055625	  0.210029	  0.057751	
7.08569	  0.054667	  0.206559	  0.057428	
7.11895	  0.053603	  0.203707	  0.057130	
7.15222	  0.052524	  0.201859	  0.056899	
7.18548	  0.051332	  0.201700	  0.056594	
7.21875	  0.049892	  0.203669	  0.056164	
7.25202	  0.048276	  0.207373	  0.055617	
7.28528	  0.046948	  0.211568	  0.055092	
7.31855	  0.046183	  0.215196	  0.054827	
7.35181	  0.046124	  0.217351	  0.054785	
7.38508	  0.046642	  0.217123	  0.054831	
7.41835	  0.047328	  0.215216	  0.054935	
7.45161	  0.047882	  0.212918	  0.054975	
7.48488	  0.048373	  0.211466	  0.054905	
7.51815	  0.048810	  0.212237	  0.054919	
7.55141	  0.049246	  0.215531	  0.055222	
7.58468	  0.049758	  0.220780	  0.055897	
7.61794	  0.050292	  0.226602	  0.056883	
7.65121	  0.050731	  0.231153	  0.058059	
7.68448	  0.051216	  0.233829	  0.059327	
7.71774	  0.052014	  0.234823	  0.060629	
7.75101	  0.053164	  0.234062	  0.061767	
7.78427	  0.054448	  0.231680	  0.062577	
7.81754	  0.055537	  0.228336	  0.063142	
7.85081	  0.056193	  0.225106	  0.063607	
7.88407	  0.056570	  0.222848	  0.063836	
7.91734	  0.056929	  0.222558	  0.063616	
7.9506	  0.057328	  0.223949	  0.062800	
7.98387	  0.057903	  0.226394	  0.061509	
8.01714	  0.058712	  0.229179	  0.060070	
8.0504	  0.059936	  0.231877	  0.058871	
8.08367	  0.061775	  0.234106	  0.058048	
8.11694	  0.064223	  0.234871	  0.057606	
8.1502	  0.066961	  0.234597	  0.057547	
8.18347	  0.069238	  0.233986	  0.057828	
8.21673	  0.070717	  0.233236	  0.058634	
8.25	  0.071508	  0.233022	  0.060358	
8.28327	  0.072141	  0.234133	  0.063375	
8.31653	  0.073215	  0.236568	  0.068037	
8.3498	  0.075090	  0.239821	  0.074537	
8.38306	  0.077057	  0.242775	  0.082662	
8.41633	  0.078202	  0.245155	  0.091749	
8.4496	  0.078790	  0.247050	  0.100383	
8.48286	  0.079723	  0.248755	  0.105864	
8.51613	  0.081210	  0.250488	  0.105280	
8.5494	  0.083204	  0.251961	  0.099612	
8.58266	  0.085886	  0.253004	  0.091530	
8.61593	  0.088865	  0.254033	  0.083142	
8.64919	  0.091358	  0.255143	  0.075708	
8.68246	  0.092848	  0.255439	  0.069757	
8.71573	  0.093981	  0.253843	  0.065214	
8.74899	  0.095812	  0.249973	  0.061899	
8.78226	  0.098718	  0.244955	  0.059700	
8.81552	  0.101953	  0.239802	  0.058461	
8.84879	  0.104463	  0.234733	  0.057975	
8.88206	  0.105646	  0.229676	  0.058146	
8.91532	  0.105578	  0.224640	  0.058885	
8.94859	  0.104606	  0.220140	  0.060100	
8.98185	  0.103329	  0.217659	  0.061569	
9.01512	  0.101957	  0.218001	  0.062657	
9.04839	  0.100732	  0.221322	  0.062931	
9.08165	  0.099676	  0.226784	  0.062497	
9.11492	  0.098721	  0.233264	  0.061647	
9.14819	  0.097885	  0.239018	  0.060829	
9.18145	  0.097166	  0.242152	  0.060322	
9.21472	  0.096693	  0.242162	  0.060267	
9.24798	  0.096606	  0.240150	  0.060667	
9.28125	  0.096301	  0.236885	  0.061322	
9.31452	  0.095956	  0.233912	  0.061798	
9.34778	  0.096264	  0.232712	  0.061866	
9.38105	  0.097729	  0.233164	  0.061554	
9.41431	  0.100534	  0.234361	  0.060913	
9.44758	  0.104124	  0.234894	  0.060038	
9.48085	  0.107754	  0.234634	  0.059152	
9.51411	  0.110844	  0.233688	  0.058365	
9.54738	  0.112452	  0.232751	  0.057625	
9.58065	  0.112964	  0.233845	  0.056903	
9.61391	  0.113642	  0.237812	  0.056243	
9.64718	  0.114841	  0.243961	  0.055476	
9.68044	  0.116136	  0.250698	  0.054464	
9.71371	  0.117242	  0.256518	  0.053381	
9.74698	  0.117826	  0.261130	  0.052683	
9.78024	  0.117749	  0.264983	  0.052632	
9.81351	  0.117332	  0.268310	  0.053084	
9.84677	  0.117012	  0.271388	  0.053716	
9.88004	  0.117214	  0.274279	  0.054226	
9.91331	  0.117667	  0.276068	  0.054354	
